<?xml version="1.0" encoding="UTF-8"?>
<svg id="_图层_2" data-name="图层 2" xmlns="http://www.w3.org/2000/svg" viewBox="0 0 289.22 407.72">
  <defs>
    <style>
      .cls-1 {
        fill: #040404;
      }

      .cls-2 {
        fill: #fcfcfc;
      }
    </style>
  </defs>
  <g id="_图层_1-2" data-name="图层 1">
    <g>
      <g>
        <path d="M25.47,297.28c0,.31-.05.46-.15.46-1.7,0-2.93.15-3.7.46-.77.31-1.3.84-1.58,1.58-.28.75-.42,1.89-.42,3.43v43.96c0,5.09-1.18,9.14-3.55,12.15-2.37,3.01-5.78,4.51-10.26,4.51-1.75,0-3.12-.3-4.13-.89-1-.59-1.5-1.4-1.5-2.43,0-.77.23-1.39.69-1.85.46-.46,1.11-.69,1.93-.69.88,0,1.54.19,2.01.58.46.39.95.96,1.46,1.74.46.72.87,1.23,1.23,1.54s.87.46,1.54.46c1.85,0,3.23-1.07,4.13-3.2.9-2.13,1.35-5.57,1.35-10.3v-45.73c0-1.54-.18-2.67-.54-3.39-.36-.72-1.07-1.22-2.12-1.5s-2.69-.42-4.9-.42c-.1,0-.15-.15-.15-.46s.05-.46.15-.46l4.47.08c2.36.1,4.21.15,5.55.15s2.98-.05,4.94-.15l3.39-.08c.1,0,.15.15.15.46Z"/>
        <path d="M44.02,342.59c-3.73-2.24-6.61-5.27-8.64-9.1-2.03-3.83-3.05-8.01-3.05-12.53,0-5.29,1.34-9.83,4.01-13.61,2.67-3.78,6.1-6.62,10.29-8.52,4.19-1.9,8.47-2.85,12.84-2.85,4.88,0,9.18,1.14,12.88,3.43,3.7,2.29,6.54,5.31,8.52,9.06,1.98,3.75,2.97,7.74,2.97,11.95,0,4.68-1.23,8.97-3.7,12.88s-5.77,6.99-9.91,9.25c-4.14,2.26-8.63,3.39-13.46,3.39s-9.04-1.12-12.76-3.36ZM68.93,341.78c2.8-1.7,5.01-4.19,6.63-7.48,1.62-3.29,2.43-7.2,2.43-11.72,0-4.83-.9-9.12-2.7-12.88-1.8-3.75-4.33-6.68-7.6-8.79-3.27-2.11-7.08-3.16-11.45-3.16-5.66,0-10.08,1.83-13.26,5.48-3.19,3.65-4.78,8.66-4.78,15.04,0,4.83.9,9.24,2.7,13.23,1.8,3.98,4.32,7.12,7.56,9.41,3.24,2.29,6.91,3.43,11.03,3.43,3.5,0,6.64-.85,9.45-2.54Z"/>
        <path d="M100.28,311.09c.98,1.49,2.17,2.74,3.59,3.74,1.41,1,3.35,2.25,5.82,3.74,2.72,1.65,4.82,3.01,6.29,4.09,1.46,1.08,2.72,2.46,3.78,4.13,1.05,1.67,1.58,3.66,1.58,5.98,0,2.47-.62,4.7-1.85,6.71-1.23,2-3.05,3.59-5.44,4.74-2.39,1.16-5.26,1.74-8.6,1.74-3.96,0-7.58-.9-10.87-2.7-.26-.15-.42-.33-.5-.54-.08-.21-.14-.51-.19-.93l-1-10.49c-.05-.21.06-.33.35-.39.28-.05.45.03.5.23.82,3.7,2.35,6.89,4.59,9.56,2.24,2.67,5.21,4.01,8.91,4.01,2.57,0,4.74-.71,6.52-2.12,1.77-1.41,2.66-3.66,2.66-6.75,0-2.31-.51-4.32-1.54-6.02-1.03-1.7-2.28-3.1-3.74-4.2-1.46-1.1-3.46-2.4-5.98-3.89-2.47-1.49-4.41-2.78-5.82-3.86-1.42-1.08-2.61-2.44-3.59-4.09-.98-1.65-1.47-3.57-1.47-5.78,0-2.57.68-4.77,2.04-6.59,1.36-1.82,3.14-3.19,5.32-4.09,2.18-.9,4.51-1.35,6.98-1.35,3.03,0,6.04.62,9.02,1.85.77.26,1.16.69,1.16,1.31l.54,8.87c0,.21-.13.31-.39.31s-.41-.1-.46-.31c-.41-2.67-1.52-5.15-3.32-7.44-1.8-2.29-4.4-3.43-7.79-3.43-2.88,0-5.03.84-6.44,2.51-1.41,1.67-2.12,3.74-2.12,6.21,0,2,.49,3.75,1.47,5.24Z"/>
        <path d="M181.41,344.56c0,.31-.08.46-.23.46-1.59,0-2.85-.03-3.78-.08l-5.32-.08-5.71.08c-.87.05-2.08.08-3.62.08-.15,0-.23-.15-.23-.46s.08-.46.23-.46c2,0,3.47-.13,4.4-.38.93-.26,1.55-.76,1.89-1.5.33-.75.5-1.89.5-3.43v-18.05h-29.61v18.05c0,1.54.17,2.69.5,3.43.33.75.96,1.25,1.89,1.5.93.26,2.39.38,4.4.38.1,0,.15.15.15.46s-.05.46-.15.46c-1.59,0-2.85-.03-3.78-.08l-5.55-.08-5.32.08c-.92.05-2.21.08-3.86.08-.1,0-.15-.15-.15-.46s.05-.46.15-.46c1.95,0,3.41-.13,4.36-.38.95-.26,1.59-.76,1.93-1.5.33-.75.5-1.89.5-3.43v-35.71c0-1.54-.17-2.67-.5-3.39-.33-.72-.96-1.22-1.89-1.5s-2.37-.42-4.32-.42c-.1,0-.15-.15-.15-.46s.05-.46.15-.46l3.93.08c2.16.1,3.88.15,5.17.15,1.49,0,3.37-.05,5.63-.15l3.7-.08c.1,0,.15.15.15.46s-.05.46-.15.46c-1.95,0-3.41.15-4.36.46-.95.31-1.59.84-1.93,1.58-.33.75-.5,1.89-.5,3.43v15.89h29.61v-15.89c0-1.54-.17-2.69-.5-3.43-.33-.75-.96-1.27-1.89-1.58s-2.39-.46-4.4-.46c-.15,0-.23-.15-.23-.46s.08-.46.23-.46l3.62.08c2.26.1,4.17.15,5.71.15,1.39,0,3.16-.05,5.32-.15l3.78-.08c.15,0,.23.15.23.46s-.08.46-.23.46c-1.95,0-3.39.14-4.32.42-.92.28-1.56.78-1.89,1.5-.33.72-.5,1.85-.5,3.39v35.71c0,1.54.17,2.69.5,3.43.33.75.96,1.25,1.89,1.5.93.26,2.36.38,4.32.38.15,0,.23.15.23.46Z"/>
        <path d="M221.43,297.75c-.15,0-.23-.15-.23-.46s.08-.46.23-.46l3.32.08c1.85.1,3.32.15,4.4.15.87,0,2.13-.05,3.78-.15l3.24-.08c.1,0,.15.15.15.46s-.05.46-.15.46c-4.11,0-6.17,2.52-6.17,7.56v21.9c0,5.91-1.65,10.53-4.94,13.84s-7.71,4.97-13.26,4.97c-3.81,0-7.13-.75-9.99-2.24-2.85-1.49-5.06-3.61-6.63-6.36-1.57-2.75-2.35-5.98-2.35-9.68v-24.68c0-1.54-.15-2.67-.46-3.39-.31-.72-.91-1.22-1.81-1.5-.9-.28-2.33-.42-4.28-.42-.1,0-.15-.15-.15-.46s.05-.46.15-.46l3.78.08c2.16.1,3.91.15,5.24.15,1.44,0,3.24-.05,5.4-.15l3.7-.08c.15,0,.23.15.23.46s-.08.46-.23.46c-1.9,0-3.32.15-4.24.46-.92.31-1.54.84-1.85,1.58-.31.75-.46,1.89-.46,3.43v21.82c0,6.02,1.38,10.63,4.13,13.84,2.75,3.21,6.59,4.82,11.53,4.82,4.63,0,8.23-1.45,10.8-4.36,2.57-2.9,3.86-6.93,3.86-12.07v-21.98c0-5.04-2.24-7.56-6.71-7.56Z"/>
        <path d="M289.22,344.56c0,.31-.1.46-.31.46-.98,0-2.49-.05-4.55-.15-2.06-.1-3.55-.15-4.47-.15-1.13,0-2.57.05-4.32.15-1.65.1-2.91.15-3.78.15-.21,0-.31-.15-.31-.46s.1-.46.31-.46c1.9,0,3.29-.18,4.16-.54.87-.36,1.31-.98,1.31-1.85,0-.72-.33-1.82-1-3.32l-6.86-14.58h-18.35l-4.86,11.41c-.72,1.75-1.08,3.16-1.08,4.24,0,1.59.63,2.76,1.89,3.51,1.26.75,3.15,1.12,5.67,1.12.26,0,.39.15.39.46s-.13.46-.39.46c-.93,0-2.26-.05-4.01-.15-1.95-.1-3.65-.15-5.09-.15-1.34,0-2.88.05-4.63.15-1.54.1-2.83.15-3.86.15-.26,0-.39-.15-.39-.46s.13-.46.39-.46c1.44,0,2.66-.27,3.66-.81s1.95-1.49,2.85-2.85c.9-1.36,1.89-3.33,2.97-5.9l16.27-38.4c.1-.15.28-.23.54-.23s.41.08.46.23l18.2,38.33c1.75,3.81,3.24,6.36,4.47,7.67,1.23,1.31,2.7,1.97,4.4,1.97.21,0,.31.15.31.46ZM251.66,322.27h17.04l-9.02-19.05-8.02,19.05Z"/>
      </g>
      <g>
        <path d="M6.45,405.65c.23.39.67.66,1.33.82.66.16,1.69.24,3.12.24.08,0,.12.08.12.24s-.04.24-.12.24c-1.1,0-1.96-.01-2.57-.04l-3.5-.04-2.69.04c-.51.03-1.19.04-2.05.04-.05,0-.08-.08-.08-.24s.03-.24.08-.24c1.02,0,1.76-.07,2.23-.2.47-.13.78-.39.95-.78.16-.39.24-.98.24-1.79v-18.61c0-.8-.08-1.39-.24-1.77-.16-.38-.48-.64-.95-.78-.47-.15-1.21-.22-2.23-.22-.05,0-.08-.08-.08-.24s.03-.24.08-.24l2.01.04c1.12.05,2.02.08,2.69.08s1.42-.04,2.25-.12c.32,0,.83-.02,1.53-.06.7-.04,1.3-.06,1.81-.06,2.46,0,4.44.55,5.93,1.65,1.49,1.1,2.23,2.77,2.23,5.02,0,1.77-.44,3.26-1.31,4.46-.87,1.21-1.98,2.1-3.33,2.69-1.35.59-2.75.88-4.2.88-.8,0-1.46-.07-1.97-.2-.08,0-.12-.07-.12-.2,0-.08.02-.16.06-.24.04-.08.09-.11.14-.08.43.11.91.16,1.45.16,1.77,0,3.26-.58,4.48-1.73,1.22-1.15,1.83-2.81,1.83-4.98s-.58-3.78-1.73-5c-1.15-1.22-2.63-1.83-4.42-1.83-.96,0-1.66.05-2.09.16s-.74.36-.92.74c-.19.39-.28,1.04-.28,1.95v18.37c0,.86.11,1.48.34,1.87Z"/>
        <path d="M49.35,406.95c0,.16-.04.24-.12.24-.83,0-1.49-.01-1.97-.04l-2.77-.04-2.97.04c-.46.03-1.08.04-1.89.04-.08,0-.12-.08-.12-.24s.04-.24.12-.24c1.04,0,1.81-.07,2.29-.2.48-.13.81-.39.98-.78.17-.39.26-.98.26-1.79v-9.4h-15.43v9.4c0,.8.09,1.4.26,1.79.17.39.5.65.98.78.48.13,1.25.2,2.29.2.05,0,.08.08.08.24s-.03.24-.08.24c-.83,0-1.49-.01-1.97-.04l-2.89-.04-2.77.04c-.48.03-1.15.04-2.01.04-.05,0-.08-.08-.08-.24s.03-.24.08-.24c1.02,0,1.78-.07,2.27-.2.5-.13.83-.39,1-.78.17-.39.26-.98.26-1.79v-18.61c0-.8-.09-1.39-.26-1.77s-.5-.64-.98-.78c-.48-.15-1.23-.22-2.25-.22-.05,0-.08-.08-.08-.24s.03-.24.08-.24l2.05.04c1.13.05,2.02.08,2.69.08.78,0,1.75-.03,2.93-.08l1.93-.04c.05,0,.08.08.08.24s-.03.24-.08.24c-1.02,0-1.78.08-2.27.24-.5.16-.83.44-1,.82-.17.39-.26.98-.26,1.79v8.28h15.43v-8.28c0-.8-.09-1.4-.26-1.79-.17-.39-.5-.66-.98-.82s-1.25-.24-2.29-.24c-.08,0-.12-.08-.12-.24s.04-.24.12-.24l1.89.04c1.18.05,2.17.08,2.97.08.72,0,1.65-.03,2.77-.08l1.97-.04c.08,0,.12.08.12.24s-.04.24-.12.24c-1.02,0-1.77.07-2.25.22-.48.15-.81.41-.98.78-.17.38-.26.96-.26,1.77v18.61c0,.8.09,1.4.26,1.79.17.39.5.65.98.78.48.13,1.23.2,2.25.2.08,0,.12.08.12.24Z"/>
        <path d="M58.78,405.93c-1.94-1.17-3.44-2.75-4.5-4.74s-1.59-4.17-1.59-6.53c0-2.76.7-5.12,2.09-7.09,1.39-1.97,3.18-3.45,5.37-4.44,2.18-.99,4.41-1.49,6.69-1.49,2.55,0,4.78.6,6.71,1.79s3.41,2.77,4.44,4.72c1.03,1.96,1.55,4.03,1.55,6.23,0,2.44-.64,4.68-1.93,6.71-1.29,2.04-3.01,3.64-5.16,4.82-2.16,1.18-4.49,1.77-7.01,1.77s-4.71-.58-6.65-1.75ZM71.76,405.51c1.46-.88,2.61-2.18,3.46-3.9s1.27-3.75,1.27-6.11c0-2.52-.47-4.75-1.41-6.71-.94-1.96-2.26-3.48-3.96-4.58-1.7-1.1-3.69-1.65-5.97-1.65-2.95,0-5.25.95-6.91,2.85-1.66,1.9-2.49,4.51-2.49,7.84,0,2.52.47,4.82,1.41,6.89.94,2.08,2.25,3.71,3.94,4.9,1.69,1.19,3.6,1.79,5.75,1.79,1.82,0,3.46-.44,4.92-1.33Z"/>
        <path d="M84.5,384.09c-.84.86-1.45,2.32-1.83,4.38,0,.05-.07.08-.22.08s-.22-.03-.22-.08c.11-.96.23-2.22.36-3.78.13-1.55.2-2.72.2-3.5,0-.13.07-.2.22-.2s.22.07.22.2c0,.59.72.88,2.17.88,2.28.08,4.97.12,8.08.12,1.58,0,3.25-.03,5.02-.08l2.73-.04c.96,0,1.68-.07,2.15-.2s.77-.4.9-.8c.03-.11.11-.16.24-.16s.2.05.2.16c-.08.78-.16,1.96-.24,3.54-.08,1.58-.12,2.87-.12,3.86,0,.05-.08.08-.24.08s-.24-.03-.24-.08c-.08-2.09-.51-3.56-1.29-4.4-.78-.84-2.06-1.27-3.86-1.27-1.21,0-2.06.05-2.57.16-.51.11-.86.33-1.04.68-.19.35-.28.94-.28,1.77v18.53c0,.83.09,1.43.28,1.81.19.38.55.63,1.08.76.54.13,1.38.2,2.53.2.08,0,.12.08.12.24s-.04.24-.12.24c-.88,0-1.59-.01-2.13-.04l-3.13-.04-3.01.04c-.54.03-1.27.04-2.21.04-.05,0-.08-.08-.08-.24s.03-.24.08-.24c1.15,0,2-.07,2.53-.2.54-.13.9-.39,1.11-.78.2-.39.3-.98.3-1.79v-18.61c0-.83-.09-1.41-.28-1.75-.19-.33-.54-.55-1.04-.64-.51-.09-1.37-.14-2.57-.14-1.69,0-2.95.43-3.8,1.29Z"/>
        <path d="M113.71,405.93c-1.94-1.17-3.44-2.75-4.5-4.74s-1.59-4.17-1.59-6.53c0-2.76.7-5.12,2.09-7.09,1.39-1.97,3.18-3.45,5.37-4.44,2.18-.99,4.41-1.49,6.69-1.49,2.55,0,4.78.6,6.71,1.79s3.41,2.77,4.44,4.72c1.03,1.96,1.55,4.03,1.55,6.23,0,2.44-.64,4.68-1.93,6.71-1.29,2.04-3.01,3.64-5.16,4.82-2.16,1.18-4.49,1.77-7.01,1.77s-4.71-.58-6.65-1.75ZM126.69,405.51c1.46-.88,2.61-2.18,3.46-3.9s1.27-3.75,1.27-6.11c0-2.52-.47-4.75-1.41-6.71-.94-1.96-2.26-3.48-3.96-4.58-1.7-1.1-3.69-1.65-5.97-1.65-2.95,0-5.25.95-6.91,2.85-1.66,1.9-2.49,4.51-2.49,7.84,0,2.52.47,4.82,1.41,6.89.94,2.08,2.25,3.71,3.94,4.9,1.69,1.19,3.6,1.79,5.75,1.79,1.82,0,3.46-.44,4.92-1.33Z"/>
        <path d="M152.43,389.51c.51.78,1.13,1.43,1.87,1.95.74.52,1.75,1.17,3.03,1.95,1.42.86,2.51,1.57,3.28,2.13.76.56,1.42,1.28,1.97,2.15.55.87.82,1.91.82,3.12,0,1.29-.32,2.45-.96,3.5-.64,1.04-1.59,1.87-2.83,2.47s-2.74.9-4.48.9c-2.06,0-3.95-.47-5.67-1.41-.13-.08-.22-.17-.26-.28-.04-.11-.07-.27-.1-.48l-.52-5.47c-.03-.11.03-.17.18-.2.15-.03.23.01.26.12.43,1.93,1.23,3.59,2.39,4.98,1.17,1.39,2.71,2.09,4.64,2.09,1.34,0,2.47-.37,3.4-1.1.92-.74,1.39-1.91,1.39-3.52,0-1.21-.27-2.25-.8-3.13-.54-.88-1.19-1.61-1.95-2.19s-1.8-1.25-3.11-2.03c-1.29-.78-2.3-1.45-3.03-2.01-.74-.56-1.36-1.27-1.87-2.13s-.76-1.86-.76-3.01c0-1.34.35-2.48,1.07-3.44.71-.95,1.63-1.66,2.77-2.13s2.35-.7,3.64-.7c1.58,0,3.15.32,4.7.96.4.13.6.36.6.68l.28,4.62c0,.11-.07.16-.2.16s-.21-.05-.24-.16c-.21-1.39-.79-2.69-1.73-3.88-.94-1.19-2.29-1.79-4.06-1.79-1.5,0-2.62.44-3.36,1.31-.74.87-1.11,1.95-1.11,3.24,0,1.04.25,1.96.76,2.73Z"/>
        <path d="M169.37,384.09c-.84.86-1.45,2.32-1.83,4.38,0,.05-.07.08-.22.08s-.22-.03-.22-.08c.11-.96.23-2.22.36-3.78.13-1.55.2-2.72.2-3.5,0-.13.07-.2.22-.2s.22.07.22.2c0,.59.72.88,2.17.88,2.28.08,4.97.12,8.08.12,1.58,0,3.25-.03,5.02-.08l2.73-.04c.96,0,1.68-.07,2.15-.2s.77-.4.9-.8c.03-.11.11-.16.24-.16s.2.05.2.16c-.08.78-.16,1.96-.24,3.54-.08,1.58-.12,2.87-.12,3.86,0,.05-.08.08-.24.08s-.24-.03-.24-.08c-.08-2.09-.51-3.56-1.29-4.4-.78-.84-2.06-1.27-3.86-1.27-1.21,0-2.06.05-2.57.16-.51.11-.86.33-1.04.68-.19.35-.28.94-.28,1.77v18.53c0,.83.09,1.43.28,1.81.19.38.55.63,1.08.76.54.13,1.38.2,2.53.2.08,0,.12.08.12.24s-.04.24-.12.24c-.88,0-1.59-.01-2.13-.04l-3.13-.04-3.01.04c-.54.03-1.27.04-2.21.04-.05,0-.08-.08-.08-.24s.03-.24.08-.24c1.15,0,2-.07,2.53-.2.54-.13.9-.39,1.11-.78.2-.39.3-.98.3-1.79v-18.61c0-.83-.09-1.41-.28-1.75-.19-.33-.54-.55-1.04-.64-.51-.09-1.37-.14-2.57-.14-1.69,0-2.95.43-3.8,1.29Z"/>
        <path d="M210.55,382.56c-.08,0-.12-.08-.12-.24s.04-.24.12-.24l1.73.04c.96.05,1.73.08,2.29.08.46,0,1.11-.03,1.97-.08l1.69-.04c.05,0,.08.08.08.24s-.03.24-.08.24c-2.14,0-3.22,1.31-3.22,3.94v11.41c0,3.08-.86,5.49-2.57,7.21-1.71,1.73-4.02,2.59-6.91,2.59-1.98,0-3.72-.39-5.2-1.17-1.49-.78-2.64-1.88-3.46-3.32-.82-1.43-1.23-3.11-1.23-5.04v-12.86c0-.8-.08-1.39-.24-1.77-.16-.38-.48-.64-.95-.78-.47-.15-1.21-.22-2.23-.22-.05,0-.08-.08-.08-.24s.03-.24.08-.24l1.97.04c1.12.05,2.04.08,2.73.08.75,0,1.69-.03,2.81-.08l1.93-.04c.08,0,.12.08.12.24s-.04.24-.12.24c-.99,0-1.73.08-2.21.24s-.8.44-.96.82c-.16.39-.24.98-.24,1.79v11.37c0,3.13.72,5.54,2.15,7.21,1.43,1.67,3.44,2.51,6.01,2.51,2.41,0,4.29-.76,5.63-2.27,1.34-1.51,2.01-3.61,2.01-6.29v-11.45c0-2.62-1.17-3.94-3.5-3.94Z"/>
        <path d="M228.59,407.24c-.38-.03-.85-.05-1.43-.08s-1.21-.04-1.91-.04l-2.73.04c-.48.03-1.15.04-2.01.04-.05,0-.08-.08-.08-.24s.03-.24.08-.24c1.02,0,1.76-.07,2.23-.2.47-.13.79-.39.96-.78.17-.39.26-.98.26-1.79v-18.61c0-.8-.08-1.39-.24-1.77-.16-.38-.48-.64-.94-.78-.47-.15-1.21-.22-2.23-.22-.05,0-.08-.08-.08-.24s.03-.24.08-.24l2.01.04c1.12.05,2.02.08,2.69.08,1.02,0,2.02-.04,3.01-.12,1.18-.05,2-.08,2.45-.08,2.79,0,5.26.54,7.42,1.61,2.16,1.07,3.82,2.53,5,4.38,1.18,1.85,1.77,3.92,1.77,6.23,0,2.6-.61,4.9-1.83,6.89-1.22,2-2.87,3.54-4.96,4.62s-4.37,1.63-6.83,1.63c-.78,0-1.67-.04-2.69-.12ZM236.59,405.41c1.66-.9,2.95-2.22,3.88-3.98.92-1.75,1.39-3.87,1.39-6.33,0-2.33-.44-4.45-1.33-6.35-.88-1.9-2.14-3.4-3.78-4.5-1.63-1.1-3.52-1.65-5.67-1.65-1.15,0-2.04.07-2.67.2-.63.13-1.09.4-1.39.8-.29.4-.44,1-.44,1.81v18.08c0,.8.11,1.43.34,1.89.23.46.66.8,1.29,1.03.63.23,1.52.34,2.67.34,2.14,0,4.04-.45,5.71-1.35Z"/>
        <path d="M255.12,405.73c.16.39.48.65.94.78.47.13,1.21.2,2.23.2.08,0,.12.08.12.24s-.04.24-.12.24c-.8,0-1.45-.01-1.93-.04l-2.85-.04-2.77.04c-.48.03-1.14.04-1.97.04-.08,0-.12-.08-.12-.24s.04-.24.12-.24c1.02,0,1.76-.07,2.23-.2.47-.13.79-.39.96-.78.17-.39.26-.98.26-1.79v-18.61c0-.8-.09-1.39-.26-1.77-.17-.38-.5-.64-.96-.78-.47-.15-1.21-.22-2.23-.22-.08,0-.12-.08-.12-.24s.04-.24.12-.24l1.97.04c1.12.05,2.05.08,2.77.08.8,0,1.77-.03,2.89-.08l1.89-.04c.08,0,.12.08.12.24s-.04.24-.12.24c-.99,0-1.72.08-2.19.24-.47.16-.79.44-.96.82-.17.39-.26.98-.26,1.79v18.53c0,.8.08,1.4.24,1.79Z"/>
        <path d="M268.28,405.93c-1.94-1.17-3.44-2.75-4.5-4.74s-1.59-4.17-1.59-6.53c0-2.76.7-5.12,2.09-7.09,1.39-1.97,3.18-3.45,5.37-4.44,2.18-.99,4.41-1.49,6.69-1.49,2.55,0,4.78.6,6.71,1.79s3.41,2.77,4.44,4.72c1.03,1.96,1.55,4.03,1.55,6.23,0,2.44-.64,4.68-1.93,6.71-1.29,2.04-3.01,3.64-5.16,4.82-2.16,1.18-4.49,1.77-7.01,1.77s-4.71-.58-6.65-1.75ZM281.26,405.51c1.46-.88,2.61-2.18,3.46-3.9s1.27-3.75,1.27-6.11c0-2.52-.47-4.75-1.41-6.71-.94-1.96-2.26-3.48-3.96-4.58-1.7-1.1-3.69-1.65-5.97-1.65-2.95,0-5.25.95-6.91,2.85-1.66,1.9-2.49,4.51-2.49,7.84,0,2.52.47,4.82,1.41,6.89.94,2.08,2.25,3.71,3.94,4.9,1.69,1.19,3.6,1.79,5.75,1.79,1.82,0,3.46-.44,4.92-1.33Z"/>
      </g>
      <g>
        <path class="cls-1" d="M165.4,221.75c-9-1.36-17.23-4.05-24.98-8.04-14.99-7.71-26.94-18.64-33.8-34.27-9.05-20.63-7.37-40.63,4.57-59.74.21-.33.4-.66.63-.98.27-.37.58-.73.96-1.21-4.04-2.53-8.5-4.02-12.94-5.48-1.2-.39-2.75.15-4.11.4-1.14.21-.7,1.23-.72,1.92-.18,10.64-.47,21.29-2.22,31.8-1.85,11.14-4.65,21.97-11.57,31.3-9.33,12.58-21.5,18.3-37.19,15.88-.37-.06-.75-.08-1.61-.16,2.76,3.34,5.6,6.06,8.62,8.55,10.1,8.33,21.89,12.65,34.75,14.44,13.78,1.92,27.05,0,39.96-4.9,1.45-.55,2.51-.81,3.6.59.58.75,1.54,1.2,2.55,1.94-8.21,3.94-16.52,6.77-25.34,7.9-20.08,2.57-39.16-.65-56.81-10.72-11.5-6.56-20.76-15.38-25.99-27.91-7.46-17.9-3.14-37.87,10.93-51.24,12.4-11.78,27.22-18.67,43.73-22.31,2.08-.46,3.18-2.67,2.27-4.56-.26-.54-.71-.49-1.15-.58-10.71-2.35-21.49-4.17-32.5-3.67-6.88.31-13.54,1.68-19.33,5.82-4.35,3.12-6.51,8.34-5.25,13.21.79,3.05,2.37,5.58,5.54,6.7,1.22.43,1.83,1.15,1.49,2.44-.37,1.38-1.36,1.72-2.7,1.57-5.99-.71-12.36-6.15-13.95-11.96-1.52-5.56.9-11.84,5.96-15.83,7.05-5.56,15.31-7.25,23.97-7.54,11.48-.38,22.74,1.42,33.92,3.81.68.15,1.38.38,2.06.35.71-.03,1.98,1.13,2.04-.71.04-1.22.55-2.51-1.67-2.68-10.15-.77-19.63-3.84-28.22-9.29-10.42-6.62-17.86-15.64-20.15-28.06-3.17-17.22,2.89-30.85,17.17-40.67,9.9-6.81,21.08-10.14,33.14-9.9,7.46.15,14.6,1.84,21.01,5.94,1.42.91,2.68,1.87,1.53,3.69-1.04,1.64-2.41,1.48-4.01.55-13.62-8-27.41-7.48-40.93-.03-12.56,6.92-18.44,18.02-18.11,32.26.31,13.02,6.39,23.22,16.18,31.45.9.75,1.31.66,2.27-.08,15.79-12.16,27.05-28.07,37.36-44.79,1.99-3.23,4.04-6.43,6.41-9.42,1.07-1.35,2.06-2.38,3.83-1.15,1.85,1.29.72,2.64-.04,3.8-4.28,6.55-7.4,13.64-8.97,21.28-1.68,8.14-2.4,16.43-2.56,24.76-.09,4.74-.03,9.47-.04,14.21,0,.96-.12,1.84,1.38,1.77,12.77-.64,26.35-6.26,32.49-18.99.54-1.11.84-2.34,1.37-3.45.36-.75,0-2.52,1.6-1.81,1.25.56,3.1,1.03,2.59,3.22-1.22,5.17-3.59,9.72-7.36,13.49-6.8,6.81-15.13,10.35-24.62,11.37-2.01.21-4.01.43-6.02.57-1.05.07-1.49.47-1.47,1.58.05,2.64.03,5.28-.02,7.92-.02,1.03.34,1.27,1.38,1.18,8.19-.77,16.35-1.91,24.59-2.02.52,0,1.05.02,1.39-.6,3.16-5.79,7.46-10.83,10.76-16.53,2.99-5.16,5.99-10.32,9.08-15.42.78-1.29-.41-1.5-.89-1.91-4.89-4.2-9.78-8.39-14.34-12.95-5.41-5.41-10.47-11.15-13.01-18.49-4.68-13.57,1.04-27.71,13.7-34.54,15.15-8.17,31.98-5.79,44.6,6.35,2.24,2.15,4.37,4.41,6.5,6.67.55.58.81.81,1.63.25,11.94-8.13,25.06-10.75,39.22-8.04,11.89,2.27,22.15,7.49,29.8,17.11,11.17,14.06,11.16,33.47.26,49.17-4.78,6.89-10.88,12.29-17.87,16.76-1.5.96-1.65,1.69-.59,3.01,1.07,1.33,1.72,3.27,3.06,4,1.3.71,2.92-.86,4.44-1.3,9.71-2.81,19.17-2.99,27.94,2.85,7.17,4.78,9.01,13.8,4.15,20.29-3.27,4.37-7.94,6.31-13.31,6.6-1.53.08-3.07.01-4.86.01,3.38,5.14,6.71,10.07,9.1,15.53,8.5,19.35,6.32,37.41-7.17,53.72-11.11,13.44-26.05,20.44-42.81,23.94-9.85,2.06-19.82,2.72-29.86,1.83-.69-.06-1.38-.18-2.06-.3-.61-.11-.66-.44-.45-1,.67-1.77,2.92-3.33,4.82-3.14,9.52.94,18.93.16,28.18-2.12,14.67-3.61,27.27-10.66,35.31-23.85,9.68-15.87,10.48-32.44,1.93-49.15-5.6-10.94-13.23-20.6-19.9-30.87-.76-1.17-1.57-2.3-2.38-3.49-7.17,5.47-11.71,12.82-15.67,20.63-6.93,13.7-11,28.41-15.4,43.01-4.16,13.8-8.58,27.53-16.25,39.88-7.55,12.16-17.24,21.95-31.24,26.55-8.22,2.7-16.54,3.29-24.96.8-2.64-.78-5.02-2.03-7.28-3.55-1.43-.96-1.88-2.22-1.04-3.81.83-1.55,1.97-1.53,3.53-1,15.72,5.36,30.1,2.53,43.26-7.31,1.04-.78,1.87-1.82,3.15-3.09ZM84.03,63.41c-2.13,1.16-3.02,3.44-4.57,5.13-5.46,5.96-11.36,11.44-17.68,16.5,5.37,3.32,11.07,5.37,17.17,6.4,1.7.29,2.1-.19,2.06-1.83-.12-5.12.14-10.23,1.01-15.28.63-3.65,1.29-7.3,1.93-10.95.06-.1.12-.19.18-.29-.07,0-.13.02-.2.02.03.1.05.2.08.3ZM247.15,52.12c.17-3.47-.44-6.82-1.35-10.11-7.13-25.9-37.95-36.95-62.59-20.51-.95.63-.92,1.03-.25,1.95,3.51,4.83,7.05,9.64,10.31,14.63,10.9,16.66,21.7,33.39,32.49,50.13.84,1.3,1.42,1.8,2.7.52,1.8-1.82,3.78-3.45,5.56-5.28,8.48-8.72,12.83-19.18,13.14-31.32ZM80.74,126.34c0-3.49-.16-6.99.06-10.47.13-2.07-.63-2.06-2.21-1.7-6.89,1.6-13.5,3.94-19.79,7.16-20.69,10.56-32.21,29.57-26.56,52.41,1.31,5.28,3.23,10.34,6.61,14.72.6.77,1.17,1.52,2.05.24.64-.92,1.42-.72,2.41-.37,6.9,2.41,13.54,2.04,19.81-2.01,6.99-4.51,10.63-11.32,12.84-19,3.85-13.39,4.67-27.15,4.77-40.98ZM112.17,150.94c.4,17.9,8.95,36.37,25.49,51.19,1.46,1.31,2.53,1.57,4.32.36,9.84-6.66,18.47-14.63,26.2-23.62.94-1.1,1.08-1.88.47-3.18-4.61-9.8-10.32-18.9-17.3-27.19-9.06-10.76-19.28-20.18-31.41-27.42-1.1-.66-1.48-.64-2.11.63-3.9,7.86-5.73,16.16-5.66,29.23ZM217.98,95.34c-3.75-5.82-7.42-11.47-11.03-17.15-10.17-16.02-20.32-32.05-30.43-48.1-.9-1.42-1.3-1.75-2.67-.28-7.85,8.43-13.51,18.28-18.89,28.34-.68,1.27-.5,1.75.54,2.57,4.92,3.91,9.83,7.82,14.6,11.9,10,8.55,19.57,17.49,25.04,29.83.36.81.67.98,1.55.76,7.32-1.77,14.35-4.33,21.29-7.89ZM177.78,164.67c2.44-3.31,3.84-7,5.47-10.59,6.44-14.2,6.11-28.17-1.3-41.95-.59-1.09-1.16-1.4-2.3-1.3-4.33.37-8.65.8-12.99.98-13.21.57-26.35-.68-39.52-1.48-3.12-.19-3.12-.2-4.52,2.87,23.74,11.37,42.6,27.99,55.15,51.47ZM144.77,4.76c-3.35.1-6.67.47-9.76,1.82-9.86,4.32-13.55,12.82-10,22.35,1.51,4.05,4.02,7.48,6.81,10.73,5.18,6.03,11.26,11.09,17.4,16.09.97.79,1.22.62,1.76-.38,5.88-10.84,11.81-21.66,20.88-30.29.8-.76.51-1.18.02-1.89-2.87-4.17-6.02-8.09-9.84-11.43-4.94-4.31-10.6-6.92-17.27-7ZM178.4,106.05c-.87-1.13-1.5-1.99-2.18-2.82-8.31-10.13-18.22-18.59-28.23-26.94-1.5-1.25-1.91-.94-2.75.57-4.72,8.54-9.64,16.97-15.27,24.97-.77,1.09-1.97,1.93-2.29,3.46,16.84,1.15,33.53,2.47,50.71.76ZM185.72,190.16c.87-2.69,1.77-5.36,2.59-8.06,4.49-14.82,8.43-29.81,13.98-44.29,4.14-10.81,9.41-20.92,18.31-28.72,1.36-1.2,3.78-2.1,3.77-3.72,0-1.57-1.8-3.13-2.81-4.69-.04-.07-.09-.13-.12-.2-.32-.76-.75-.73-1.45-.38-6.7,3.31-13.78,5.57-21,7.38-1.77.44-1.62,1.16-1.27,2.55,2.71,10.5,1.64,20.76-2.14,30.82-3.7,9.85-9,18.86-14.47,27.77-.62,1-.57,1.75-.2,2.74,2.26,6.04,4.29,12.14,4.8,18.81ZM171.36,182.76c-8.1,9.48-16.97,17.61-27.38,24.18,7.27,4.85,14.71,8.33,23.03,9.8,1.48.26,2.13-.07,2.82-1.39,5.49-10.46,4.95-21.18,1.53-32.6ZM255.68,124.43c6.79.12,11.35-3.51,11.69-9.41.28-4.85-1.95-8.74-6.1-11.03-7.74-4.26-15.72-3.11-23.61-.16-.84.31-.98.72-.43,1.54,3.71,5.54,7.36,11.12,11.04,16.68.38.57.72,1.19,1.51,1.35,2.05.39,4.04,1.13,5.9,1.03Z"/>
        <path class="cls-2" d="M84.03,63.41c-.03-.1-.05-.2-.08-.3.07,0,.13-.02.2-.02-.06.1-.12.19-.18.29,0,0,.07.04.07.04Z"/>
      </g>
    </g>
  </g>
</svg>